<?xml version="1.0" encoding="UTF-8"?>
<svg version="1.1" xmlns="http://www.w3.org/2000/svg" width="2250" height="2250">
<path d="M0 0 C0 139.92 0 279.84 0 424 C0.66 424 1.32 424 2 424 C1.98428955 423.10583374 1.98428955 423.10583374 1.96826172 422.19360352 C0.56231629 328.71602925 33.04980094 238.25474126 100.50976562 150.76123047 C101.63360944 149.43301793 102.72611432 148.07819669 103.80273438 146.71142578 C109.99420807 138.89403987 116.82440938 131.86939711 123.89208984 124.84716797 C125.87181424 122.8781685 127.84060754 120.89869273 129.80859375 118.91796875 C136.90355031 111.81561251 144.11037736 105.21795004 152 99 C153.10229682 98.06577316 154.19860393 97.12436759 155.28515625 96.171875 C191.8973308 64.24564684 236.55377583 40.45526016 282 24 C283.00434082 23.63632324 284.00868164 23.27264648 285.04345703 22.89794922 C329.61720662 6.96667504 376.64147007 -0.24481987 423.875 -0.1875 C424.87366089 -0.18656342 425.87232178 -0.18562683 426.90124512 -0.18466187 C480.19155266 -0.07645224 533.66120868 9.45958255 583 30 C583.96147949 30.39912598 584.92295898 30.79825195 585.91357422 31.20947266 C616.80140617 44.15478101 646.01350049 60.13677338 673 80 C673.67611328 80.49209961 674.35222656 80.98419922 675.04882812 81.49121094 C693.35974195 94.82954011 710.08638171 109.89862148 726.09204102 125.90673828 C727.69204519 127.50453893 729.29993615 129.09411551 730.90820312 130.68359375 C737.40313376 137.14376087 743.30638361 143.81372274 749 151 C750.55925805 152.83609142 752.12103933 154.67004964 753.6875 156.5 C766.10513871 171.43187468 776.91258504 187.42271718 787 204 C787.51272461 204.84224121 788.02544922 205.68448242 788.55371094 206.55224609 C802.5805484 229.82840026 813.88477825 254.42013181 823 280 C823.35787598 280.99273926 823.71575195 281.98547852 824.08447266 283.00830078 C840.02804083 327.59300938 847.2448378 374.62669644 847.1875 421.875 C847.18656342 422.87366089 847.18562683 423.87232178 847.18466187 424.90124512 C847.07645224 478.19155266 837.54041745 531.66120868 817 581 C816.60087402 581.96147949 816.20174805 582.92295898 815.79052734 583.91357422 C802.86344229 614.75792492 786.95069964 644.11831286 767 671 C766.4755127 671.70850098 765.95102539 672.41700195 765.41064453 673.14697266 C757.99706714 683.11265569 750.23434025 692.70269708 742 702 C740.81857422 703.34964844 740.81857422 703.34964844 739.61328125 704.7265625 C733.63383322 711.40890861 727.34044875 717.7869288 721.02529907 724.14993286 C720.02569029 725.15758155 719.02756645 726.16670601 718.03109741 727.17745972 C711.37135342 733.92247139 704.41331607 740.08146089 697 746 C695.89828422 746.93491198 694.80193811 747.8762511 693.71484375 748.828125 C626.52294221 807.42021917 530.80318132 844.81955361 435.50415039 845.0246582 C434.49064766 845.02287819 433.47714493 845.02109818 432.43292999 845.01926422 C429.95527682 845.01465476 427.47764347 845.00819178 425 845 C425.00037972 845.90509294 425.00075944 846.81018588 425.00115067 847.74270588 C425.02351875 901.36138172 425.04068151 954.98005707 425.05106533 1008.59873665 C425.05231607 1015.03384202 425.05361039 1021.46894738 425.05493164 1027.90405273 C425.05519395 1029.1851903 425.05545626 1030.46632786 425.05572652 1031.78628778 C425.06008026 1052.54234347 425.0679662 1073.2983964 425.0771528 1094.05445046 C425.08649753 1115.34504772 425.09205735 1136.63564354 425.09408849 1157.92624277 C425.09546201 1171.06834154 425.09980339 1184.2104325 425.10791647 1197.35252886 C425.11319402 1206.35913038 425.11480198 1215.36572784 425.11350138 1224.37233079 C425.11285959 1229.57206254 425.11385767 1234.77178061 425.11920547 1239.97150993 C425.1240644 1244.73055441 425.12432218 1249.489576 425.12089889 1254.24862152 C425.12047567 1255.97148075 425.12175036 1257.6943414 425.12488318 1259.41719783 C425.12889221 1261.75776432 425.12673528 1264.09824801 425.12304783 1266.43881321 C425.12342755 1267.73935534 425.12380727 1269.03989747 425.1241985 1270.37984997 C425.00034631 1273.98990568 424.55943803 1277.43428094 424 1281 C423.84157378 1283.20786884 423.71093887 1285.41787488 423.60546875 1287.62890625 C418.19003195 1391.46660485 377.96152701 1487.22537553 289.91796875 1579.8984375 C289.06138672 1580.62933594 289.06138672 1580.62933594 288.1875 1581.375 C285.19769527 1583.94748973 282.27790107 1586.57990115 279.375 1589.25 C273.76200349 1594.3068307 267.87279977 1598.95675868 261.8828125 1603.55419922 C260.63024713 1604.51603689 259.38022738 1605.48119898 258.1328125 1606.44970703 C194.42103393 1655.86929461 116.17582339 1685.20920213 36 1692 C35.32888184 1692.05784668 34.65776367 1692.11569336 33.96630859 1692.17529297 C22.60577032 1693.11665058 11.44353959 1693 0 1693 C0 1554.73 0 1416.46 0 1274 C-0.66 1274 -1.32 1274 -2 1274 C-1.97679687 1275.15371094 -1.95359375 1276.30742188 -1.9296875 1277.49609375 C-0.65820334 1369.14811356 -35.20850111 1460.09714876 -100.50976562 1543.23876953 C-101.63360944 1544.56698207 -102.72611432 1545.92180331 -103.80273438 1547.28857422 C-109.99420807 1555.10596013 -116.82440938 1562.13060289 -123.89208984 1569.15283203 C-125.87181424 1571.1218315 -127.84060754 1573.10130727 -129.80859375 1575.08203125 C-136.90355031 1582.18438749 -144.11037736 1588.78204996 -152 1595 C-153.10229682 1595.93422684 -154.19860393 1596.87563241 -155.28515625 1597.828125 C-168.60209639 1609.44064664 -183.2092739 1619.37228038 -198 1629 C-198.98613281 1629.64710937 -199.97226562 1630.29421875 -200.98828125 1630.9609375 C-207.16728443 1634.96374295 -213.51943589 1638.5134171 -220 1642 C-221.00047363 1642.53915039 -222.00094727 1643.07830078 -223.03173828 1643.63378906 C-238.68188511 1652.01630205 -254.43351987 1659.57006144 -271 1666 C-271.87833496 1666.34724121 -272.75666992 1666.69448242 -273.66162109 1667.05224609 C-321.39604329 1685.81433917 -372.72694655 1694.24957031 -423.875 1694.1875 C-424.87366089 1694.18656342 -425.87232178 1694.18562683 -426.90124512 1694.18466187 C-480.19155266 1694.07645224 -533.66120868 1684.54041745 -583 1664 C-583.96147949 1663.60087402 -584.92295898 1663.20174805 -585.91357422 1662.79052734 C-616.80552921 1649.843491 -646.00359408 1633.85478001 -673 1614 C-673.6707959 1613.51321777 -674.3415918 1613.02643555 -675.03271484 1612.52490234 C-685.14826936 1605.18199205 -694.68126459 1597.32592029 -704 1589 C-704.72920654 1588.35836914 -705.45841309 1587.71673828 -706.2097168 1587.05566406 C-712.81923028 1581.19388139 -719.12423181 1575.0619747 -725.3684082 1568.81689453 C-727.05857346 1567.12892145 -728.75660834 1565.44914276 -730.45507812 1563.76953125 C-737.10267276 1557.15576431 -743.18068371 1550.36315348 -749 1543 C-750.55925805 1541.16390858 -752.12103933 1539.32995036 -753.6875 1537.5 C-783.98027974 1501.07375173 -807.07529302 1458.50448841 -823 1414 C-823.35932617 1413.00436035 -823.71865234 1412.0087207 -824.08886719 1410.98291016 C-840.02936332 1366.40094195 -847.24483331 1319.36960937 -847.1875 1272.125 C-847.18656342 1271.12633911 -847.18562683 1270.12767822 -847.18466187 1269.09875488 C-847.0764378 1215.80133306 -837.53066632 1162.3483556 -817 1113 C-816.60619141 1112.04915527 -816.21238281 1111.09831055 -815.80664062 1110.11865234 C-802.91579511 1079.28554859 -787.12779266 1049.74401237 -767 1023 C-766.50822266 1022.33983887 -766.01644531 1021.67967773 -765.50976562 1020.99951172 C-758.04625586 1010.99537916 -750.27495498 1001.34316057 -742 992 C-741.21238281 991.10023438 -740.42476562 990.20046875 -739.61328125 989.2734375 C-733.63383322 982.59109139 -727.34044875 976.2130712 -721.02529907 969.85006714 C-720.02569029 968.84241845 -719.02756645 967.83329399 -718.03109741 966.82254028 C-711.37135342 960.07752861 -704.41331607 953.91853911 -697 948 C-695.89828422 947.06508802 -694.80193811 946.1237489 -693.71484375 945.171875 C-657.08965682 913.2342999 -612.4468493 889.49217101 -567 873 C-566.08750488 872.66871094 -565.17500977 872.33742188 -564.23486328 871.99609375 C-519.38414182 855.92815681 -472.49339999 849 -425 849 C-425 708.75 -425 568.5 -425 424 C-424.01 424 -423.02 424 -422 424 C-421.98541748 423.18249268 -421.97083496 422.36498535 -421.95581055 421.52270508 C-420.00983647 322.85563074 -388.30912424 227.70564252 -319 146 C-318.40058594 145.30003906 -317.80117188 144.60007812 -317.18359375 143.87890625 C-306.34041937 131.31127522 -294.96187719 118.71516681 -282.29296875 107.953125 C-280.42099222 106.35859644 -278.57632179 104.74249358 -276.73828125 103.109375 C-268.46832336 95.79343044 -259.9596567 88.95621091 -251.02392578 82.47070312 C-249.69283238 81.50345263 -248.36555183 80.53092931 -247.04248047 79.55273438 C-227.30412835 64.96244459 -205.92262697 52.96538832 -184 42 C-183.21560547 41.60119629 -182.43121094 41.20239258 -181.62304688 40.79150391 C-137.23520171 18.30076873 -87.6439604 5.99207826 -38.3125 1.25 C-36.37346802 1.05809082 -36.37346802 1.05809082 -34.39526367 0.86230469 C-22.81023754 -0.16567364 -11.77515789 0 0 0 Z " fill="#913C51" transform="translate(1125,278)"/>
<path d="M0 0 C1.51650021 0.00348953 1.51650021 0.00348953 3.06363678 0.00704956 C5.53226896 0.01306761 8.00086693 0.02150967 10.46948242 0.03222656 C10.69463547 52.07868095 10.86950443 104.12528642 11.02229482 156.17200023 C11.0319317 159.45246013 11.04162736 162.73291985 11.05132437 166.01337957 C11.31729724 256.31808815 11.48448197 346.62333562 11.03682401 872.40255115 C11.03035266 877.33757523 11.02389986 882.27259934 11.01744645 887.20762344 C10.8725596 997.98331922 10.71865527 1108.75900135 10.46948242 1274.03222656 C9.80948242 1274.03222656 9.14948242 1274.03222656 8.46948242 1274.03222656 C8.49268555 1275.1859375 8.51588867 1276.33964844 8.53979492 1277.52832031 C9.81127908 1369.18034012 -24.73901869 1460.12937532 -90.0402832 1543.27099609 C-91.16412702 1544.59920863 -92.2566319 1545.95402987 -93.33325195 1547.32080078 C-99.52472565 1555.13818669 -106.35492696 1562.16282946 -113.42260742 1569.18505859 C-115.40233182 1571.15405806 -117.37112512 1573.13353383 -119.33911133 1575.11425781 C-126.43406789 1582.21661406 -133.64089494 1588.81427652 -141.53051758 1595.03222656 C-142.6328144 1595.9664534 -143.72912151 1596.90785897 -144.81567383 1597.86035156 C-158.13261397 1609.47287321 -172.73979148 1619.40450695 -187.53051758 1629.03222656 C-188.51665039 1629.67933594 -189.5027832 1630.32644531 -190.51879883 1630.99316406 C-196.69780201 1634.99596952 -203.04995347 1638.54564366 -209.53051758 1642.03222656 C-210.53099121 1642.57137695 -211.53146484 1643.11052734 -212.56225586 1643.66601562 C-228.21240269 1652.04852862 -243.96403745 1659.602288 -260.53051758 1666.03222656 C-261.40885254 1666.37946777 -262.2871875 1666.72670898 -263.19213867 1667.08447266 C-310.92656087 1685.84656574 -362.25746413 1694.28179687 -413.40551758 1694.21972656 C-414.40417847 1694.21878998 -415.40283936 1694.21785339 -416.4317627 1694.21688843 C-469.72207023 1694.1086788 -523.19172626 1684.57264401 -572.53051758 1664.03222656 C-573.49199707 1663.63310059 -574.45347656 1663.23397461 -575.4440918 1662.82275391 C-606.33604679 1649.87571756 -635.53411165 1633.88700658 -662.53051758 1614.03222656 C-663.20131348 1613.54544434 -663.87210938 1613.05866211 -664.56323242 1612.55712891 C-674.67878694 1605.21421861 -684.21178217 1597.35814686 -693.53051758 1589.03222656 C-694.25972412 1588.3905957 -694.98893066 1587.74896484 -695.74023438 1587.08789062 C-702.34974786 1581.22610795 -708.65474939 1575.09420126 -714.89892578 1568.84912109 C-716.58909104 1567.16114801 -718.28712592 1565.48136932 -719.9855957 1563.80175781 C-726.63319034 1557.18799087 -732.71120129 1550.39538005 -738.53051758 1543.03222656 C-740.08977563 1541.19613514 -741.65155691 1539.36217692 -743.21801758 1537.53222656 C-773.51079731 1501.10597829 -796.6058106 1458.53671498 -812.53051758 1414.03222656 C-812.88984375 1413.03658691 -813.24916992 1412.04094727 -813.61938477 1411.01513672 C-829.5598809 1366.43316851 -836.77535089 1319.40183593 -836.71801758 1272.15722656 C-836.71708099 1271.15856567 -836.71614441 1270.15990479 -836.71517944 1269.13098145 C-836.60695537 1215.83355962 -827.0611839 1162.38058216 -806.53051758 1113.03222656 C-806.13670898 1112.08138184 -805.74290039 1111.13053711 -805.3371582 1110.15087891 C-792.44631269 1079.31777515 -776.65831024 1049.77623893 -756.53051758 1023.03222656 C-756.03874023 1022.37206543 -755.54696289 1021.7119043 -755.0402832 1021.03173828 C-747.57677344 1011.02760572 -739.80547256 1001.37538713 -731.53051758 992.03222656 C-730.74290039 991.13246094 -729.9552832 990.23269531 -729.14379883 989.30566406 C-723.1643508 982.62331796 -716.87096633 976.24529776 -710.55581665 969.8822937 C-709.55620787 968.87464501 -708.55808403 967.86552055 -707.56161499 966.85476685 C-700.901871 960.10975517 -693.94383365 953.95076567 -686.53051758 948.03222656 C-685.4288018 947.09731458 -684.33245569 946.15597546 -683.24536133 945.20410156 C-646.6201744 913.26652646 -601.97736688 889.52439758 -556.53051758 873.03222656 C-555.61802246 872.7009375 -554.70552734 872.36964844 -553.76538086 872.02832031 C-508.91465939 855.96038337 -462.02391757 849.03222656 -414.53051758 849.03222656 C-414.53051758 708.78222656 -414.53051758 568.53222656 -414.53051758 424.03222656 C-413.54051758 424.03222656 -412.55051758 424.03222656 -411.53051758 424.03222656 C-411.51593506 423.21471924 -411.50135254 422.39721191 -411.48632812 421.55493164 C-409.54035405 322.88785731 -377.83964182 227.73786908 -308.53051758 146.03222656 C-307.93110352 145.33226562 -307.33168945 144.63230469 -306.71411133 143.91113281 C-295.87093694 131.34350178 -284.49239477 118.74739337 -271.82348633 107.98535156 C-269.9515098 106.39082301 -268.10683937 104.77472014 -266.26879883 103.14160156 C-257.99884094 95.825657 -249.49017428 88.98843748 -240.55444336 82.50292969 C-239.22334996 81.53567919 -237.89606941 80.56315588 -236.57299805 79.58496094 C-216.83464593 64.99467115 -195.45314454 52.99761488 -173.53051758 42.03222656 C-172.74612305 41.63342285 -171.96172852 41.23461914 -171.15356445 40.82373047 C-126.76571929 18.33299529 -77.17447798 6.02430482 -27.84301758 1.28222656 C-25.9039856 1.09031738 -25.9039856 1.09031738 -23.92578125 0.89453125 C-15.92517717 0.18461075 -8.02814311 -0.03545848 0 0 Z " fill="#793063" transform="translate(1114.530517578125,277.9677734375)"/>
</svg>
